<mxfile host="app.diagrams.net" modified="2022-06-01T23:49:35.619Z" agent="5.0 (Windows NT 10.0; Win64; x64) AppleWebKit/537.36 (KHTML, like Gecko) Chrome/102.0.0.0 Safari/537.36" etag="Juc4twTdVpQsqKjL-7cg" version="18.2.0" type="github">
  <diagram id="PnP7zL2xAOmIPGhwWnhU" name="Page-1">
    <mxGraphModel dx="2009" dy="717" grid="1" gridSize="10" guides="1" tooltips="1" connect="1" arrows="1" fold="1" page="1" pageScale="1" pageWidth="827" pageHeight="1169" math="0" shadow="0">
      <root>
        <mxCell id="0" />
        <mxCell id="1" parent="0" />
        <mxCell id="j9hM6vvmrAqGxy37i9sb-47" value="e" style="edgeStyle=orthogonalEdgeStyle;rounded=0;orthogonalLoop=1;jettySize=auto;html=1;exitX=0.5;exitY=0;exitDx=0;exitDy=0;entryX=0;entryY=0.5;entryDx=0;entryDy=0;" parent="1" source="j9hM6vvmrAqGxy37i9sb-1" target="j9hM6vvmrAqGxy37i9sb-12" edge="1">
          <mxGeometry relative="1" as="geometry" />
        </mxCell>
        <mxCell id="j9hM6vvmrAqGxy37i9sb-52" value="b" style="edgeStyle=orthogonalEdgeStyle;rounded=0;orthogonalLoop=1;jettySize=auto;html=1;exitX=1;exitY=0.5;exitDx=0;exitDy=0;entryX=0.5;entryY=0;entryDx=0;entryDy=0;" parent="1" source="j9hM6vvmrAqGxy37i9sb-1" target="j9hM6vvmrAqGxy37i9sb-4" edge="1">
          <mxGeometry relative="1" as="geometry" />
        </mxCell>
        <mxCell id="j9hM6vvmrAqGxy37i9sb-53" value="c" style="edgeStyle=orthogonalEdgeStyle;rounded=0;orthogonalLoop=1;jettySize=auto;html=1;exitX=1;exitY=0;exitDx=0;exitDy=0;entryX=0.5;entryY=0;entryDx=0;entryDy=0;" parent="1" source="j9hM6vvmrAqGxy37i9sb-1" target="j9hM6vvmrAqGxy37i9sb-18" edge="1">
          <mxGeometry relative="1" as="geometry" />
        </mxCell>
        <mxCell id="j9hM6vvmrAqGxy37i9sb-54" style="edgeStyle=orthogonalEdgeStyle;rounded=0;orthogonalLoop=1;jettySize=auto;html=1;exitX=1;exitY=1;exitDx=0;exitDy=0;entryX=0.199;entryY=0.038;entryDx=0;entryDy=0;entryPerimeter=0;" parent="1" source="j9hM6vvmrAqGxy37i9sb-1" target="j9hM6vvmrAqGxy37i9sb-49" edge="1">
          <mxGeometry relative="1" as="geometry" />
        </mxCell>
        <mxCell id="j9hM6vvmrAqGxy37i9sb-55" value="a" style="edgeStyle=orthogonalEdgeStyle;rounded=0;orthogonalLoop=1;jettySize=auto;html=1;exitX=0;exitY=0.5;exitDx=0;exitDy=0;entryX=0.5;entryY=0;entryDx=0;entryDy=0;" parent="1" source="j9hM6vvmrAqGxy37i9sb-1" target="j9hM6vvmrAqGxy37i9sb-5" edge="1">
          <mxGeometry relative="1" as="geometry" />
        </mxCell>
        <mxCell id="j9hM6vvmrAqGxy37i9sb-1" value="1" style="ellipse;whiteSpace=wrap;html=1;aspect=fixed;" parent="1" vertex="1">
          <mxGeometry x="450" y="160" width="80" height="80" as="geometry" />
        </mxCell>
        <mxCell id="j9hM6vvmrAqGxy37i9sb-19" style="edgeStyle=orthogonalEdgeStyle;rounded=0;orthogonalLoop=1;jettySize=auto;html=1;exitX=1;exitY=0.5;exitDx=0;exitDy=0;" parent="1" source="j9hM6vvmrAqGxy37i9sb-4" target="j9hM6vvmrAqGxy37i9sb-18" edge="1">
          <mxGeometry relative="1" as="geometry" />
        </mxCell>
        <mxCell id="j9hM6vvmrAqGxy37i9sb-4" value="3" style="ellipse;whiteSpace=wrap;html=1;aspect=fixed;" parent="1" vertex="1">
          <mxGeometry x="590" y="330" width="80" height="80" as="geometry" />
        </mxCell>
        <mxCell id="j9hM6vvmrAqGxy37i9sb-11" style="edgeStyle=orthogonalEdgeStyle;rounded=0;orthogonalLoop=1;jettySize=auto;html=1;exitX=1;exitY=0.5;exitDx=0;exitDy=0;entryX=0;entryY=0.5;entryDx=0;entryDy=0;" parent="1" source="j9hM6vvmrAqGxy37i9sb-5" target="j9hM6vvmrAqGxy37i9sb-4" edge="1">
          <mxGeometry relative="1" as="geometry" />
        </mxCell>
        <mxCell id="j9hM6vvmrAqGxy37i9sb-5" value="2" style="ellipse;whiteSpace=wrap;html=1;aspect=fixed;" parent="1" vertex="1">
          <mxGeometry x="330" y="330" width="80" height="80" as="geometry" />
        </mxCell>
        <mxCell id="j9hM6vvmrAqGxy37i9sb-12" value="6" style="ellipse;whiteSpace=wrap;html=1;aspect=fixed;" parent="1" vertex="1">
          <mxGeometry x="740" y="70" width="80" height="80" as="geometry" />
        </mxCell>
        <mxCell id="j9hM6vvmrAqGxy37i9sb-50" style="edgeStyle=orthogonalEdgeStyle;rounded=0;orthogonalLoop=1;jettySize=auto;html=1;exitX=1;exitY=0.5;exitDx=0;exitDy=0;entryX=0;entryY=0.5;entryDx=0;entryDy=0;" parent="1" source="j9hM6vvmrAqGxy37i9sb-18" target="j9hM6vvmrAqGxy37i9sb-49" edge="1">
          <mxGeometry relative="1" as="geometry" />
        </mxCell>
        <mxCell id="j9hM6vvmrAqGxy37i9sb-18" value="4" style="ellipse;whiteSpace=wrap;html=1;aspect=fixed;" parent="1" vertex="1">
          <mxGeometry x="740" y="330" width="80" height="80" as="geometry" />
        </mxCell>
        <mxCell id="j9hM6vvmrAqGxy37i9sb-56" style="edgeStyle=orthogonalEdgeStyle;rounded=0;orthogonalLoop=1;jettySize=auto;html=1;exitX=1;exitY=0.25;exitDx=0;exitDy=0;entryX=0;entryY=0;entryDx=0;entryDy=0;" parent="1" source="j9hM6vvmrAqGxy37i9sb-28" target="j9hM6vvmrAqGxy37i9sb-29" edge="1">
          <mxGeometry relative="1" as="geometry" />
        </mxCell>
        <mxCell id="j9hM6vvmrAqGxy37i9sb-28" value="&lt;pre style=&quot;box-sizing: border-box; border-radius: 4px; overflow: auto; font-family: Menlo, Monaco, Consolas, &amp;quot;Courier New&amp;quot;, monospace; font-size: 13px; display: block; padding: 2px; margin: 0px 0px 10px; line-height: 1.42857; color: rgb(51, 51, 51); word-break: break-all; overflow-wrap: break-word; background-color: rgb(245, 245, 245); border: 1px solid rgb(136, 136, 136); text-align: left; font-style: normal; font-variant-ligatures: normal; font-variant-caps: normal; font-weight: 400; letter-spacing: normal; orphans: 2; text-indent: 0px; text-transform: none; widows: 2; word-spacing: 0px; -webkit-text-stroke-width: 0px; text-decoration-thickness: initial; text-decoration-style: initial; text-decoration-color: initial;&quot; class=&quot;prettyprint prettyprinted&quot; id=&quot;fonte&quot;&gt;&lt;span style=&quot;box-sizing: border-box; border-radius: 0px !important; color: rgb(0, 0, 136);&quot; class=&quot;kwd&quot;&gt;if&lt;/span&gt;&lt;span style=&quot;box-sizing: border-box; border-radius: 0px !important; color: rgb(0, 0, 0);&quot; class=&quot;pln&quot;&gt; a&lt;/span&gt;&lt;span style=&quot;box-sizing: border-box; border-radius: 0px !important; color: rgb(102, 102, 0);&quot; class=&quot;pun&quot;&gt;&amp;lt;=&lt;/span&gt;&lt;span style=&quot;box-sizing: border-box; border-radius: 0px !important; color: rgb(0, 102, 102);&quot; class=&quot;lit&quot;&gt;0&lt;/span&gt;&lt;span style=&quot;box-sizing: border-box; border-radius: 0px !important; color: rgb(0, 0, 0);&quot; class=&quot;pln&quot;&gt; &lt;/span&gt;&lt;span style=&quot;box-sizing: border-box; border-radius: 0px !important; color: rgb(0, 0, 136);&quot; class=&quot;kwd&quot;&gt;or&lt;/span&gt;&lt;span style=&quot;box-sizing: border-box; border-radius: 0px !important; color: rgb(0, 0, 0);&quot; class=&quot;pln&quot;&gt; b&lt;/span&gt;&lt;span style=&quot;box-sizing: border-box; border-radius: 0px !important; color: rgb(102, 102, 0);&quot; class=&quot;pun&quot;&gt;&amp;lt;=&lt;/span&gt;&lt;span style=&quot;box-sizing: border-box; border-radius: 0px !important; color: rgb(0, 102, 102);&quot; class=&quot;lit&quot;&gt;0&lt;/span&gt;&lt;span style=&quot;box-sizing: border-box; border-radius: 0px !important; color: rgb(0, 0, 0);&quot; class=&quot;pln&quot;&gt; &lt;/span&gt;&lt;span style=&quot;box-sizing: border-box; border-radius: 0px !important; color: rgb(0, 0, 136);&quot; class=&quot;kwd&quot;&gt;or&lt;/span&gt;&lt;span style=&quot;box-sizing: border-box; border-radius: 0px !important; color: rgb(0, 0, 0);&quot; class=&quot;pln&quot;&gt; c&lt;/span&gt;&lt;span style=&quot;box-sizing: border-box; border-radius: 0px !important; color: rgb(102, 102, 0);&quot; class=&quot;pun&quot;&gt;&amp;lt;=&lt;/span&gt;&lt;span style=&quot;box-sizing: border-box; border-radius: 0px !important; color: rgb(0, 102, 102);&quot; class=&quot;lit&quot;&gt;0&lt;/span&gt;&lt;span style=&quot;box-sizing: border-box; border-radius: 0px !important; color: rgb(0, 0, 0);&quot; class=&quot;pln&quot;&gt; &lt;/span&gt;&lt;span style=&quot;box-sizing: border-box; border-radius: 0px !important; color: rgb(102, 102, 0);&quot; class=&quot;pun&quot;&gt;:&lt;/span&gt;&lt;span style=&quot;box-sizing: border-box; border-radius: 0px !important; color: rgb(0, 0, 0);&quot; class=&quot;pln&quot;&gt;&#xa;&amp;nbsp;&amp;nbsp;&amp;nbsp;&lt;/span&gt;&lt;span style=&quot;box-sizing: border-box; border-radius: 0px !important; color: rgb(0, 0, 136);&quot; class=&quot;kwd&quot;&gt;print&lt;/span&gt;&lt;span style=&quot;box-sizing: border-box; border-radius: 0px !important; color: rgb(102, 102, 0);&quot; class=&quot;pun&quot;&gt;(&lt;/span&gt;&lt;span style=&quot;box-sizing: border-box; border-radius: 0px !important; color: rgb(0, 136, 0);&quot; class=&quot;str&quot;&gt;&quot;Lados nulos ou negativos nao sao aceitos.&quot;&lt;/span&gt;&lt;span style=&quot;box-sizing: border-box; border-radius: 0px !important; color: rgb(102, 102, 0);&quot; class=&quot;pun&quot;&gt;)&lt;/span&gt;&lt;span style=&quot;box-sizing: border-box; border-radius: 0px !important; color: rgb(0, 0, 0);&quot; class=&quot;pln&quot;&gt;&#xa;&amp;nbsp;&amp;nbsp;&amp;nbsp;quit&lt;/span&gt;&lt;span style=&quot;box-sizing: border-box; border-radius: 0px !important; color: rgb(102, 102, 0);&quot; class=&quot;pun&quot;&gt;()&lt;/span&gt;&lt;/pre&gt;" style="text;whiteSpace=wrap;html=1;" parent="1" vertex="1">
          <mxGeometry x="-290" y="860" width="410" height="90" as="geometry" />
        </mxCell>
        <mxCell id="j9hM6vvmrAqGxy37i9sb-57" style="edgeStyle=orthogonalEdgeStyle;rounded=0;orthogonalLoop=1;jettySize=auto;html=1;exitX=1;exitY=0.25;exitDx=0;exitDy=0;entryX=0;entryY=0;entryDx=0;entryDy=0;" parent="1" source="j9hM6vvmrAqGxy37i9sb-29" target="j9hM6vvmrAqGxy37i9sb-30" edge="1">
          <mxGeometry relative="1" as="geometry" />
        </mxCell>
        <mxCell id="j9hM6vvmrAqGxy37i9sb-29" value="&lt;pre style=&quot;box-sizing: border-box; border-radius: 4px; overflow: auto; font-family: Menlo, Monaco, Consolas, &amp;quot;Courier New&amp;quot;, monospace; font-size: 13px; display: block; padding: 2px; margin: 0px 0px 10px; line-height: 1.42857; color: rgb(51, 51, 51); word-break: break-all; overflow-wrap: break-word; background-color: rgb(245, 245, 245); border: 1px solid rgb(136, 136, 136); text-align: left; font-style: normal; font-variant-ligatures: normal; font-variant-caps: normal; font-weight: 400; letter-spacing: normal; orphans: 2; text-indent: 0px; text-transform: none; widows: 2; word-spacing: 0px; -webkit-text-stroke-width: 0px; text-decoration-thickness: initial; text-decoration-style: initial; text-decoration-color: initial;&quot; class=&quot;prettyprint prettyprinted&quot; id=&quot;fonte&quot;&gt;&lt;span style=&quot;box-sizing: border-box; border-radius: 0px !important; color: rgb(0, 0, 136);&quot; class=&quot;kwd&quot;&gt;if&lt;/span&gt;&lt;span style=&quot;box-sizing: border-box; border-radius: 0px !important; color: rgb(0, 0, 0);&quot; class=&quot;pln&quot;&gt; a&lt;/span&gt;&lt;span style=&quot;box-sizing: border-box; border-radius: 0px !important; color: rgb(102, 102, 0);&quot; class=&quot;pun&quot;&gt;&amp;gt;=&lt;/span&gt;&lt;span style=&quot;box-sizing: border-box; border-radius: 0px !important; color: rgb(0, 0, 0);&quot; class=&quot;pln&quot;&gt;b&lt;/span&gt;&lt;span style=&quot;box-sizing: border-box; border-radius: 0px !important; color: rgb(102, 102, 0);&quot; class=&quot;pun&quot;&gt;+&lt;/span&gt;&lt;span style=&quot;box-sizing: border-box; border-radius: 0px !important; color: rgb(0, 0, 0);&quot; class=&quot;pln&quot;&gt;c &lt;/span&gt;&lt;span style=&quot;box-sizing: border-box; border-radius: 0px !important; color: rgb(0, 0, 136);&quot; class=&quot;kwd&quot;&gt;or&lt;/span&gt;&lt;span style=&quot;box-sizing: border-box; border-radius: 0px !important; color: rgb(0, 0, 0);&quot; class=&quot;pln&quot;&gt; b&lt;/span&gt;&lt;span style=&quot;box-sizing: border-box; border-radius: 0px !important; color: rgb(102, 102, 0);&quot; class=&quot;pun&quot;&gt;&amp;gt;=&lt;/span&gt;&lt;span style=&quot;box-sizing: border-box; border-radius: 0px !important; color: rgb(0, 0, 0);&quot; class=&quot;pln&quot;&gt;c&lt;/span&gt;&lt;span style=&quot;box-sizing: border-box; border-radius: 0px !important; color: rgb(102, 102, 0);&quot; class=&quot;pun&quot;&gt;+&lt;/span&gt;&lt;span style=&quot;box-sizing: border-box; border-radius: 0px !important; color: rgb(0, 0, 0);&quot; class=&quot;pln&quot;&gt;a &lt;/span&gt;&lt;span style=&quot;box-sizing: border-box; border-radius: 0px !important; color: rgb(0, 0, 136);&quot; class=&quot;kwd&quot;&gt;or&lt;/span&gt;&lt;span style=&quot;box-sizing: border-box; border-radius: 0px !important; color: rgb(0, 0, 0);&quot; class=&quot;pln&quot;&gt; c&lt;/span&gt;&lt;span style=&quot;box-sizing: border-box; border-radius: 0px !important; color: rgb(102, 102, 0);&quot; class=&quot;pun&quot;&gt;&amp;gt;=&lt;/span&gt;&lt;span style=&quot;box-sizing: border-box; border-radius: 0px !important; color: rgb(0, 0, 0);&quot; class=&quot;pln&quot;&gt;a&lt;/span&gt;&lt;span style=&quot;box-sizing: border-box; border-radius: 0px !important; color: rgb(102, 102, 0);&quot; class=&quot;pun&quot;&gt;+&lt;/span&gt;&lt;span style=&quot;box-sizing: border-box; border-radius: 0px !important; color: rgb(0, 0, 0);&quot; class=&quot;pln&quot;&gt;b &lt;/span&gt;&lt;span style=&quot;box-sizing: border-box; border-radius: 0px !important; color: rgb(102, 102, 0);&quot; class=&quot;pun&quot;&gt;:&lt;/span&gt;&lt;span style=&quot;box-sizing: border-box; border-radius: 0px !important; color: rgb(0, 0, 0);&quot; class=&quot;pln&quot;&gt;&#xa;&amp;nbsp;&amp;nbsp;&amp;nbsp;&lt;/span&gt;&lt;span style=&quot;box-sizing: border-box; border-radius: 0px !important; color: rgb(0, 0, 136);&quot; class=&quot;kwd&quot;&gt;print&lt;/span&gt;&lt;span style=&quot;box-sizing: border-box; border-radius: 0px !important; color: rgb(102, 102, 0);&quot; class=&quot;pun&quot;&gt;(&lt;/span&gt;&lt;span style=&quot;box-sizing: border-box; border-radius: 0px !important; color: rgb(0, 136, 0);&quot; class=&quot;str&quot;&gt;&quot;Triangulo inexistente.&quot;&lt;/span&gt;&lt;span style=&quot;box-sizing: border-box; border-radius: 0px !important; color: rgb(102, 102, 0);&quot; class=&quot;pun&quot;&gt;)&lt;/span&gt;&lt;span style=&quot;box-sizing: border-box; border-radius: 0px !important; color: rgb(0, 0, 0);&quot; class=&quot;pln&quot;&gt;&#xa;&amp;nbsp;&amp;nbsp;&amp;nbsp;quit&lt;/span&gt;&lt;span style=&quot;box-sizing: border-box; border-radius: 0px !important; color: rgb(102, 102, 0);&quot; class=&quot;pun&quot;&gt;()&lt;/span&gt;&lt;/pre&gt;" style="text;whiteSpace=wrap;html=1;" parent="1" vertex="1">
          <mxGeometry x="220" y="855" width="270" height="90" as="geometry" />
        </mxCell>
        <mxCell id="j9hM6vvmrAqGxy37i9sb-58" style="edgeStyle=orthogonalEdgeStyle;rounded=0;orthogonalLoop=1;jettySize=auto;html=1;exitX=1;exitY=0.25;exitDx=0;exitDy=0;entryX=0;entryY=0;entryDx=0;entryDy=0;" parent="1" source="j9hM6vvmrAqGxy37i9sb-30" target="j9hM6vvmrAqGxy37i9sb-31" edge="1">
          <mxGeometry relative="1" as="geometry" />
        </mxCell>
        <mxCell id="j9hM6vvmrAqGxy37i9sb-30" value="&lt;pre style=&quot;box-sizing: border-box; border-radius: 4px; overflow: auto; font-family: Menlo, Monaco, Consolas, &amp;quot;Courier New&amp;quot;, monospace; font-size: 13px; display: block; padding: 2px; margin: 0px 0px 10px; line-height: 1.42857; color: rgb(51, 51, 51); word-break: break-all; overflow-wrap: break-word; background-color: rgb(245, 245, 245); border: 1px solid rgb(136, 136, 136); text-align: left; font-style: normal; font-variant-ligatures: normal; font-variant-caps: normal; font-weight: 400; letter-spacing: normal; orphans: 2; text-indent: 0px; text-transform: none; widows: 2; word-spacing: 0px; -webkit-text-stroke-width: 0px; text-decoration-thickness: initial; text-decoration-style: initial; text-decoration-color: initial;&quot; class=&quot;prettyprint prettyprinted&quot; id=&quot;fonte&quot;&gt;&lt;span style=&quot;box-sizing: border-box; border-radius: 0px !important; color: rgb(0, 0, 136);&quot; class=&quot;kwd&quot;&gt;if&lt;/span&gt;&lt;span style=&quot;box-sizing: border-box; border-radius: 0px !important; color: rgb(0, 0, 0);&quot; class=&quot;pln&quot;&gt; a&lt;/span&gt;&lt;span style=&quot;box-sizing: border-box; border-radius: 0px !important; color: rgb(102, 102, 0);&quot; class=&quot;pun&quot;&gt;==&lt;/span&gt;&lt;span style=&quot;box-sizing: border-box; border-radius: 0px !important; color: rgb(0, 0, 0);&quot; class=&quot;pln&quot;&gt;b &lt;/span&gt;&lt;span style=&quot;box-sizing: border-box; border-radius: 0px !important; color: rgb(0, 0, 136);&quot; class=&quot;kwd&quot;&gt;and&lt;/span&gt;&lt;span style=&quot;box-sizing: border-box; border-radius: 0px !important; color: rgb(0, 0, 0);&quot; class=&quot;pln&quot;&gt; b&lt;/span&gt;&lt;span style=&quot;box-sizing: border-box; border-radius: 0px !important; color: rgb(102, 102, 0);&quot; class=&quot;pun&quot;&gt;==&lt;/span&gt;&lt;span style=&quot;box-sizing: border-box; border-radius: 0px !important; color: rgb(0, 0, 0);&quot; class=&quot;pln&quot;&gt;c &lt;/span&gt;&lt;span style=&quot;box-sizing: border-box; border-radius: 0px !important; color: rgb(102, 102, 0);&quot; class=&quot;pun&quot;&gt;:&lt;/span&gt;&lt;span style=&quot;box-sizing: border-box; border-radius: 0px !important; color: rgb(0, 0, 0);&quot; class=&quot;pln&quot;&gt;&#xa;&amp;nbsp;&amp;nbsp;&amp;nbsp;&lt;/span&gt;&lt;span style=&quot;box-sizing: border-box; border-radius: 0px !important; color: rgb(0, 0, 136);&quot; class=&quot;kwd&quot;&gt;print&lt;/span&gt;&lt;span style=&quot;box-sizing: border-box; border-radius: 0px !important; color: rgb(102, 102, 0);&quot; class=&quot;pun&quot;&gt;(&lt;/span&gt;&lt;span style=&quot;box-sizing: border-box; border-radius: 0px !important; color: rgb(0, 136, 0);&quot; class=&quot;str&quot;&gt;&quot;Triangulo equilatero.&quot;&lt;/span&gt;&lt;span style=&quot;box-sizing: border-box; border-radius: 0px !important; color: rgb(102, 102, 0);&quot; class=&quot;pun&quot;&gt;)&lt;/span&gt;&lt;span style=&quot;box-sizing: border-box; border-radius: 0px !important; color: rgb(0, 0, 0);&quot; class=&quot;pln&quot;&gt;&#xa;&lt;/span&gt;&lt;/pre&gt;&lt;br class=&quot;Apple-interchange-newline&quot;&gt;" style="text;whiteSpace=wrap;html=1;" parent="1" vertex="1">
          <mxGeometry x="560" y="860" width="270" height="80" as="geometry" />
        </mxCell>
        <mxCell id="j9hM6vvmrAqGxy37i9sb-45" style="edgeStyle=orthogonalEdgeStyle;rounded=0;orthogonalLoop=1;jettySize=auto;html=1;exitX=0.5;exitY=1;exitDx=0;exitDy=0;entryX=0;entryY=0.5;entryDx=0;entryDy=0;" parent="1" source="j9hM6vvmrAqGxy37i9sb-31" target="j9hM6vvmrAqGxy37i9sb-32" edge="1">
          <mxGeometry relative="1" as="geometry" />
        </mxCell>
        <mxCell id="j9hM6vvmrAqGxy37i9sb-31" value="&lt;pre style=&quot;box-sizing: border-box; border-radius: 4px; overflow: auto; font-family: Menlo, Monaco, Consolas, &amp;quot;Courier New&amp;quot;, monospace; font-size: 13px; display: block; padding: 2px; margin: 0px 0px 10px; line-height: 1.42857; color: rgb(51, 51, 51); word-break: break-all; overflow-wrap: break-word; background-color: rgb(245, 245, 245); border: 1px solid rgb(136, 136, 136); text-align: left; font-style: normal; font-variant-ligatures: normal; font-variant-caps: normal; font-weight: 400; letter-spacing: normal; orphans: 2; text-indent: 0px; text-transform: none; widows: 2; word-spacing: 0px; -webkit-text-stroke-width: 0px; text-decoration-thickness: initial; text-decoration-style: initial; text-decoration-color: initial;&quot; class=&quot;prettyprint prettyprinted&quot; id=&quot;fonte&quot;&gt;&lt;span style=&quot;box-sizing: border-box; border-radius: 0px !important; color: rgb(0, 0, 136);&quot; class=&quot;kwd&quot;&gt;elif&lt;/span&gt;&lt;span style=&quot;box-sizing: border-box; border-radius: 0px !important; color: rgb(0, 0, 0);&quot; class=&quot;pln&quot;&gt; a&lt;/span&gt;&lt;span style=&quot;box-sizing: border-box; border-radius: 0px !important; color: rgb(102, 102, 0);&quot; class=&quot;pun&quot;&gt;==&lt;/span&gt;&lt;span style=&quot;box-sizing: border-box; border-radius: 0px !important; color: rgb(0, 0, 0);&quot; class=&quot;pln&quot;&gt;b &lt;/span&gt;&lt;span style=&quot;box-sizing: border-box; border-radius: 0px !important; color: rgb(0, 0, 136);&quot; class=&quot;kwd&quot;&gt;or&lt;/span&gt;&lt;span style=&quot;box-sizing: border-box; border-radius: 0px !important; color: rgb(0, 0, 0);&quot; class=&quot;pln&quot;&gt; b&lt;/span&gt;&lt;span style=&quot;box-sizing: border-box; border-radius: 0px !important; color: rgb(102, 102, 0);&quot; class=&quot;pun&quot;&gt;==&lt;/span&gt;&lt;span style=&quot;box-sizing: border-box; border-radius: 0px !important; color: rgb(0, 0, 0);&quot; class=&quot;pln&quot;&gt;c &lt;/span&gt;&lt;span style=&quot;box-sizing: border-box; border-radius: 0px !important; color: rgb(0, 0, 136);&quot; class=&quot;kwd&quot;&gt;or&lt;/span&gt;&lt;span style=&quot;box-sizing: border-box; border-radius: 0px !important; color: rgb(0, 0, 0);&quot; class=&quot;pln&quot;&gt; c&lt;/span&gt;&lt;span style=&quot;box-sizing: border-box; border-radius: 0px !important; color: rgb(102, 102, 0);&quot; class=&quot;pun&quot;&gt;==&lt;/span&gt;&lt;span style=&quot;box-sizing: border-box; border-radius: 0px !important; color: rgb(0, 0, 0);&quot; class=&quot;pln&quot;&gt;a &lt;/span&gt;&lt;span style=&quot;box-sizing: border-box; border-radius: 0px !important; color: rgb(102, 102, 0);&quot; class=&quot;pun&quot;&gt;:&lt;/span&gt;&lt;span style=&quot;box-sizing: border-box; border-radius: 0px !important; color: rgb(0, 0, 0);&quot; class=&quot;pln&quot;&gt;&#xa;&amp;nbsp;&amp;nbsp;&amp;nbsp;&lt;/span&gt;&lt;span style=&quot;box-sizing: border-box; border-radius: 0px !important; color: rgb(0, 0, 136);&quot; class=&quot;kwd&quot;&gt;print&lt;/span&gt;&lt;span style=&quot;box-sizing: border-box; border-radius: 0px !important; color: rgb(102, 102, 0);&quot; class=&quot;pun&quot;&gt;(&lt;/span&gt;&lt;span style=&quot;box-sizing: border-box; border-radius: 0px !important; color: rgb(0, 136, 0);&quot; class=&quot;str&quot;&gt;&quot;Triangulo isosceles.&quot;&lt;/span&gt;&lt;span style=&quot;box-sizing: border-box; border-radius: 0px !important; color: rgb(102, 102, 0);&quot; class=&quot;pun&quot;&gt;)&lt;/span&gt;&lt;/pre&gt;" style="text;whiteSpace=wrap;html=1;" parent="1" vertex="1">
          <mxGeometry x="890" y="855" width="260" height="70" as="geometry" />
        </mxCell>
        <mxCell id="j9hM6vvmrAqGxy37i9sb-59" style="edgeStyle=orthogonalEdgeStyle;rounded=0;orthogonalLoop=1;jettySize=auto;html=1;exitX=1;exitY=0.5;exitDx=0;exitDy=0;entryX=0;entryY=0;entryDx=0;entryDy=0;" parent="1" source="j9hM6vvmrAqGxy37i9sb-32" target="j9hM6vvmrAqGxy37i9sb-34" edge="1">
          <mxGeometry relative="1" as="geometry" />
        </mxCell>
        <mxCell id="j9hM6vvmrAqGxy37i9sb-32" value="&lt;pre style=&quot;box-sizing: border-box; border-radius: 4px; overflow: auto; font-family: Menlo, Monaco, Consolas, &amp;quot;Courier New&amp;quot;, monospace; font-size: 13px; display: block; padding: 2px; margin: 0px 0px 10px; line-height: 1.42857; color: rgb(51, 51, 51); word-break: break-all; overflow-wrap: break-word; background-color: rgb(245, 245, 245); border: 1px solid rgb(136, 136, 136); text-align: left; font-style: normal; font-variant-ligatures: normal; font-variant-caps: normal; font-weight: 400; letter-spacing: normal; orphans: 2; text-indent: 0px; text-transform: none; widows: 2; word-spacing: 0px; -webkit-text-stroke-width: 0px; text-decoration-thickness: initial; text-decoration-style: initial; text-decoration-color: initial;&quot; class=&quot;prettyprint prettyprinted&quot; id=&quot;fonte&quot;&gt;&lt;span style=&quot;box-sizing: border-box; border-radius: 0px !important; color: rgb(0, 0, 136);&quot; class=&quot;kwd&quot;&gt;else&lt;/span&gt;&lt;span style=&quot;box-sizing: border-box; border-radius: 0px !important; color: rgb(102, 102, 0);&quot; class=&quot;pun&quot;&gt;:&lt;/span&gt;&lt;span style=&quot;box-sizing: border-box; border-radius: 0px !important; color: rgb(0, 0, 0);&quot; class=&quot;pln&quot;&gt;&#xa;&amp;nbsp;&amp;nbsp;&amp;nbsp;&lt;/span&gt;&lt;span style=&quot;box-sizing: border-box; border-radius: 0px !important; color: rgb(0, 0, 136);&quot; class=&quot;kwd&quot;&gt;print&lt;/span&gt;&lt;span style=&quot;box-sizing: border-box; border-radius: 0px !important; color: rgb(102, 102, 0);&quot; class=&quot;pun&quot;&gt;(&lt;/span&gt;&lt;span style=&quot;box-sizing: border-box; border-radius: 0px !important; color: rgb(0, 136, 0);&quot; class=&quot;str&quot;&gt;&quot;Triangulo escaleno.&quot;&lt;/span&gt;&lt;span style=&quot;box-sizing: border-box; border-radius: 0px !important; color: rgb(102, 102, 0);&quot; class=&quot;pun&quot;&gt;)&lt;/span&gt;&lt;/pre&gt;" style="text;whiteSpace=wrap;html=1;" parent="1" vertex="1">
          <mxGeometry x="-470" y="660" width="250" height="70" as="geometry" />
        </mxCell>
        <mxCell id="j9hM6vvmrAqGxy37i9sb-36" style="edgeStyle=orthogonalEdgeStyle;rounded=0;orthogonalLoop=1;jettySize=auto;html=1;exitX=0.25;exitY=1;exitDx=0;exitDy=0;entryX=0.5;entryY=0;entryDx=0;entryDy=0;" parent="1" source="j9hM6vvmrAqGxy37i9sb-34" target="j9hM6vvmrAqGxy37i9sb-29" edge="1">
          <mxGeometry relative="1" as="geometry" />
        </mxCell>
        <mxCell id="j9hM6vvmrAqGxy37i9sb-37" style="edgeStyle=orthogonalEdgeStyle;rounded=0;orthogonalLoop=1;jettySize=auto;html=1;exitX=0.75;exitY=1;exitDx=0;exitDy=0;entryX=0.5;entryY=0;entryDx=0;entryDy=0;" parent="1" source="j9hM6vvmrAqGxy37i9sb-34" target="j9hM6vvmrAqGxy37i9sb-30" edge="1">
          <mxGeometry relative="1" as="geometry" />
        </mxCell>
        <mxCell id="j9hM6vvmrAqGxy37i9sb-38" style="edgeStyle=orthogonalEdgeStyle;rounded=0;orthogonalLoop=1;jettySize=auto;html=1;exitX=0;exitY=0.75;exitDx=0;exitDy=0;entryX=0.673;entryY=0.022;entryDx=0;entryDy=0;entryPerimeter=0;" parent="1" source="j9hM6vvmrAqGxy37i9sb-34" target="j9hM6vvmrAqGxy37i9sb-28" edge="1">
          <mxGeometry relative="1" as="geometry" />
        </mxCell>
        <mxCell id="j9hM6vvmrAqGxy37i9sb-39" style="edgeStyle=orthogonalEdgeStyle;rounded=0;orthogonalLoop=1;jettySize=auto;html=1;exitX=1;exitY=0.5;exitDx=0;exitDy=0;" parent="1" source="j9hM6vvmrAqGxy37i9sb-34" target="j9hM6vvmrAqGxy37i9sb-31" edge="1">
          <mxGeometry relative="1" as="geometry" />
        </mxCell>
        <mxCell id="j9hM6vvmrAqGxy37i9sb-34" value="&lt;pre style=&quot;box-sizing: border-box; border-radius: 4px; overflow: auto; font-family: Menlo, Monaco, Consolas, &amp;quot;Courier New&amp;quot;, monospace; font-size: 13px; display: block; padding: 2px; margin: 0px 0px 10px; line-height: 1.42857; color: rgb(51, 51, 51); word-break: break-all; overflow-wrap: break-word; background-color: rgb(245, 245, 245); border: 1px solid rgb(136, 136, 136); text-align: left; font-style: normal; font-variant-ligatures: normal; font-variant-caps: normal; font-weight: 400; letter-spacing: normal; orphans: 2; text-indent: 0px; text-transform: none; widows: 2; word-spacing: 0px; -webkit-text-stroke-width: 0px; text-decoration-thickness: initial; text-decoration-style: initial; text-decoration-color: initial;&quot; class=&quot;prettyprint prettyprinted&quot; id=&quot;fonte&quot;&gt;&lt;span style=&quot;box-sizing: border-box; border-radius: 0px !important; color: rgb(0, 0, 0);&quot; class=&quot;pln&quot;&gt;&amp;nbsp;a &lt;/span&gt;&lt;span style=&quot;box-sizing: border-box; border-radius: 0px !important; color: rgb(102, 102, 0);&quot; class=&quot;pun&quot;&gt;=&lt;/span&gt;&lt;span style=&quot;box-sizing: border-box; border-radius: 0px !important; color: rgb(0, 0, 0);&quot; class=&quot;pln&quot;&gt; &lt;/span&gt;&lt;span style=&quot;box-sizing: border-box; border-radius: 0px !important; color: rgb(0, 0, 136);&quot; class=&quot;kwd&quot;&gt;float&lt;/span&gt;&lt;span style=&quot;box-sizing: border-box; border-radius: 0px !important; color: rgb(102, 102, 0);&quot; class=&quot;pun&quot;&gt;(&lt;/span&gt;&lt;span style=&quot;box-sizing: border-box; border-radius: 0px !important; color: rgb(0, 0, 0);&quot; class=&quot;pln&quot;&gt;input&lt;/span&gt;&lt;span style=&quot;box-sizing: border-box; border-radius: 0px !important; color: rgb(102, 102, 0);&quot; class=&quot;pun&quot;&gt;(&lt;/span&gt;&lt;span style=&quot;box-sizing: border-box; border-radius: 0px !important; color: rgb(0, 136, 0);&quot; class=&quot;str&quot;&gt;&quot;Entre com a medida do lado 1 do triangulo: &quot;&lt;/span&gt;&lt;span style=&quot;box-sizing: border-box; border-radius: 0px !important; color: rgb(102, 102, 0);&quot; class=&quot;pun&quot;&gt;))&lt;/span&gt;&lt;span style=&quot;box-sizing: border-box; border-radius: 0px !important; color: rgb(0, 0, 0);&quot; class=&quot;pln&quot;&gt;&#xa;&amp;nbsp;&amp;nbsp;&amp;nbsp;b &lt;/span&gt;&lt;span style=&quot;box-sizing: border-box; border-radius: 0px !important; color: rgb(102, 102, 0);&quot; class=&quot;pun&quot;&gt;=&lt;/span&gt;&lt;span style=&quot;box-sizing: border-box; border-radius: 0px !important; color: rgb(0, 0, 0);&quot; class=&quot;pln&quot;&gt; &lt;/span&gt;&lt;span style=&quot;box-sizing: border-box; border-radius: 0px !important; color: rgb(0, 0, 136);&quot; class=&quot;kwd&quot;&gt;float&lt;/span&gt;&lt;span style=&quot;box-sizing: border-box; border-radius: 0px !important; color: rgb(102, 102, 0);&quot; class=&quot;pun&quot;&gt;(&lt;/span&gt;&lt;span style=&quot;box-sizing: border-box; border-radius: 0px !important; color: rgb(0, 0, 0);&quot; class=&quot;pln&quot;&gt;input&lt;/span&gt;&lt;span style=&quot;box-sizing: border-box; border-radius: 0px !important; color: rgb(102, 102, 0);&quot; class=&quot;pun&quot;&gt;(&lt;/span&gt;&lt;span style=&quot;box-sizing: border-box; border-radius: 0px !important; color: rgb(0, 136, 0);&quot; class=&quot;str&quot;&gt;&quot;Entre com a medida do lado 2 do triangulo: &quot;&lt;/span&gt;&lt;span style=&quot;box-sizing: border-box; border-radius: 0px !important; color: rgb(102, 102, 0);&quot; class=&quot;pun&quot;&gt;))&lt;/span&gt;&lt;span style=&quot;box-sizing: border-box; border-radius: 0px !important; color: rgb(0, 0, 0);&quot; class=&quot;pln&quot;&gt;&#xa;&amp;nbsp;&amp;nbsp;&amp;nbsp;c &lt;/span&gt;&lt;span style=&quot;box-sizing: border-box; border-radius: 0px !important; color: rgb(102, 102, 0);&quot; class=&quot;pun&quot;&gt;=&lt;/span&gt;&lt;span style=&quot;box-sizing: border-box; border-radius: 0px !important; color: rgb(0, 0, 0);&quot; class=&quot;pln&quot;&gt; &lt;/span&gt;&lt;span style=&quot;box-sizing: border-box; border-radius: 0px !important; color: rgb(0, 0, 136);&quot; class=&quot;kwd&quot;&gt;float&lt;/span&gt;&lt;span style=&quot;box-sizing: border-box; border-radius: 0px !important; color: rgb(102, 102, 0);&quot; class=&quot;pun&quot;&gt;(&lt;/span&gt;&lt;span style=&quot;box-sizing: border-box; border-radius: 0px !important; color: rgb(0, 0, 0);&quot; class=&quot;pln&quot;&gt;input&lt;/span&gt;&lt;span style=&quot;box-sizing: border-box; border-radius: 0px !important; color: rgb(102, 102, 0);&quot; class=&quot;pun&quot;&gt;(&lt;/span&gt;&lt;span style=&quot;box-sizing: border-box; border-radius: 0px !important; color: rgb(0, 136, 0);&quot; class=&quot;str&quot;&gt;&quot;Entre com a medida do lado 3 do triangulo: &quot;&lt;/span&gt;&lt;span style=&quot;box-sizing: border-box; border-radius: 0px !important; color: rgb(102, 102, 0);&quot; class=&quot;pun&quot;&gt;))&lt;/span&gt;&lt;span style=&quot;box-sizing: border-box; border-radius: 0px !important; color: rgb(0, 0, 0);&quot; class=&quot;pln&quot;&gt;&#xa;&lt;/span&gt;&lt;/pre&gt;&lt;br class=&quot;Apple-interchange-newline&quot;&gt;" style="text;whiteSpace=wrap;html=1;" parent="1" vertex="1">
          <mxGeometry x="230" y="650" width="500" height="100" as="geometry" />
        </mxCell>
        <mxCell id="j9hM6vvmrAqGxy37i9sb-51" value="d" style="edgeStyle=orthogonalEdgeStyle;rounded=0;orthogonalLoop=1;jettySize=auto;html=1;exitX=0.5;exitY=0;exitDx=0;exitDy=0;entryX=1;entryY=0.5;entryDx=0;entryDy=0;" parent="1" source="j9hM6vvmrAqGxy37i9sb-49" target="j9hM6vvmrAqGxy37i9sb-12" edge="1">
          <mxGeometry relative="1" as="geometry" />
        </mxCell>
        <mxCell id="j9hM6vvmrAqGxy37i9sb-49" value="5" style="ellipse;whiteSpace=wrap;html=1;aspect=fixed;" parent="1" vertex="1">
          <mxGeometry x="890" y="330" width="80" height="80" as="geometry" />
        </mxCell>
        <mxCell id="2GZa3a2gxY8HqLqlvazA-13" value="NÓ" style="swimlane;fontStyle=0;childLayout=stackLayout;horizontal=1;startSize=26;fillColor=none;horizontalStack=0;resizeParent=1;resizeParentMax=0;resizeLast=0;collapsible=1;marginBottom=0;" vertex="1" parent="1">
          <mxGeometry x="1170" y="340" width="140" height="156" as="geometry" />
        </mxCell>
        <mxCell id="2GZa3a2gxY8HqLqlvazA-14" value="1" style="text;strokeColor=none;fillColor=none;align=left;verticalAlign=top;spacingLeft=4;spacingRight=4;overflow=hidden;rotatable=0;points=[[0,0.5],[1,0.5]];portConstraint=eastwest;" vertex="1" parent="2GZa3a2gxY8HqLqlvazA-13">
          <mxGeometry y="26" width="140" height="26" as="geometry" />
        </mxCell>
        <mxCell id="2GZa3a2gxY8HqLqlvazA-15" value="2" style="text;strokeColor=none;fillColor=none;align=left;verticalAlign=top;spacingLeft=4;spacingRight=4;overflow=hidden;rotatable=0;points=[[0,0.5],[1,0.5]];portConstraint=eastwest;" vertex="1" parent="2GZa3a2gxY8HqLqlvazA-13">
          <mxGeometry y="52" width="140" height="26" as="geometry" />
        </mxCell>
        <mxCell id="2GZa3a2gxY8HqLqlvazA-16" value="3" style="text;strokeColor=none;fillColor=none;align=left;verticalAlign=top;spacingLeft=4;spacingRight=4;overflow=hidden;rotatable=0;points=[[0,0.5],[1,0.5]];portConstraint=eastwest;" vertex="1" parent="2GZa3a2gxY8HqLqlvazA-13">
          <mxGeometry y="78" width="140" height="26" as="geometry" />
        </mxCell>
        <mxCell id="2GZa3a2gxY8HqLqlvazA-17" value="4" style="text;strokeColor=none;fillColor=none;align=left;verticalAlign=top;spacingLeft=4;spacingRight=4;overflow=hidden;rotatable=0;points=[[0,0.5],[1,0.5]];portConstraint=eastwest;" vertex="1" parent="2GZa3a2gxY8HqLqlvazA-13">
          <mxGeometry y="104" width="140" height="26" as="geometry" />
        </mxCell>
        <mxCell id="2GZa3a2gxY8HqLqlvazA-18" value="5" style="text;strokeColor=none;fillColor=none;align=left;verticalAlign=top;spacingLeft=4;spacingRight=4;overflow=hidden;rotatable=0;points=[[0,0.5],[1,0.5]];portConstraint=eastwest;" vertex="1" parent="2GZa3a2gxY8HqLqlvazA-13">
          <mxGeometry y="130" width="140" height="26" as="geometry" />
        </mxCell>
        <mxCell id="2GZa3a2gxY8HqLqlvazA-20" value="Caminhos" style="swimlane;fontStyle=0;childLayout=stackLayout;horizontal=1;startSize=26;fillColor=none;horizontalStack=0;resizeParent=1;resizeParentMax=0;resizeLast=0;collapsible=1;marginBottom=0;" vertex="1" parent="1">
          <mxGeometry x="1310" y="340" width="140" height="156" as="geometry" />
        </mxCell>
        <mxCell id="2GZa3a2gxY8HqLqlvazA-21" value="1 á 6" style="text;strokeColor=none;fillColor=none;align=left;verticalAlign=top;spacingLeft=4;spacingRight=4;overflow=hidden;rotatable=0;points=[[0,0.5],[1,0.5]];portConstraint=eastwest;" vertex="1" parent="2GZa3a2gxY8HqLqlvazA-20">
          <mxGeometry y="26" width="140" height="26" as="geometry" />
        </mxCell>
        <mxCell id="2GZa3a2gxY8HqLqlvazA-22" value="4" style="text;strokeColor=none;fillColor=none;align=left;verticalAlign=top;spacingLeft=4;spacingRight=4;overflow=hidden;rotatable=0;points=[[0,0.5],[1,0.5]];portConstraint=eastwest;" vertex="1" parent="2GZa3a2gxY8HqLqlvazA-20">
          <mxGeometry y="52" width="140" height="26" as="geometry" />
        </mxCell>
        <mxCell id="2GZa3a2gxY8HqLqlvazA-23" value="3" style="text;strokeColor=none;fillColor=none;align=left;verticalAlign=top;spacingLeft=4;spacingRight=4;overflow=hidden;rotatable=0;points=[[0,0.5],[1,0.5]];portConstraint=eastwest;" vertex="1" parent="2GZa3a2gxY8HqLqlvazA-20">
          <mxGeometry y="78" width="140" height="26" as="geometry" />
        </mxCell>
        <mxCell id="2GZa3a2gxY8HqLqlvazA-24" value="2" style="text;strokeColor=none;fillColor=none;align=left;verticalAlign=top;spacingLeft=4;spacingRight=4;overflow=hidden;rotatable=0;points=[[0,0.5],[1,0.5]];portConstraint=eastwest;" vertex="1" parent="2GZa3a2gxY8HqLqlvazA-20">
          <mxGeometry y="104" width="140" height="26" as="geometry" />
        </mxCell>
        <mxCell id="2GZa3a2gxY8HqLqlvazA-25" value="1" style="text;strokeColor=none;fillColor=none;align=left;verticalAlign=top;spacingLeft=4;spacingRight=4;overflow=hidden;rotatable=0;points=[[0,0.5],[1,0.5]];portConstraint=eastwest;" vertex="1" parent="2GZa3a2gxY8HqLqlvazA-20">
          <mxGeometry y="130" width="140" height="26" as="geometry" />
        </mxCell>
      </root>
    </mxGraphModel>
  </diagram>
</mxfile>
